<svg width="410" height="404" viewBox="0 0 410 404" fill="none" xmlns="http://www.w3.org/2000/svg">
  <path d="M399.641 59.5253L215.643 388.545C211.927 395.212 202.01 395.278 198.21 388.667L10.5817 59.5538C6.38087 52.2021 12.6802 43.2665 21.0281 44.7586L205.223 77.6824C206.398 77.8924 207.601 77.8904 208.776 77.6763L389.119 44.8058C397.439 43.2894 403.768 52.1434 399.641 59.5253Z" fill="url(#paint0_linear)"/>
  <path d="M292.965 1.5744L156.801 28.2558C154.563 28.6987 152.906 30.5903 152.771 32.8664L146.221 143.394C146.056 146.159 148.558 148.292 151.243 147.74L188.014 140.21C190.946 139.606 193.589 142.192 192.932 145.103L179.228 206.434C178.543 209.473 181.463 212.046 184.422 211.197L206.352 205.001C209.32 204.149 212.245 206.733 211.552 209.779L194.409 285.581C193.6 289.191 198.579 291.111 200.556 287.941L202.067 285.5L294.689 106.164C296.106 103.451 293.719 100.367 290.743 100.93L252.776 108.112C249.787 108.677 247.402 105.565 248.851 102.861L301.474 3.87702C302.94 1.1344 300.44 -1.50889 297.57 -0.934584C296.052 -0.633653 294.518 -0.30464 292.965 1.5744Z" fill="url(#paint1_linear)"/>
  <defs>
    <linearGradient id="paint0_linear" x1="6.00017" y1="32.9999" x2="235" y2="344" gradientUnits="userSpaceOnUse">
      <stop stop-color="#41D1FF"/>
      <stop offset="1" stop-color="#BD34FE"/>
    </linearGradient>
    <linearGradient id="paint1_linear" x1="194.651" y1="8.81818" x2="236.076" y2="292.989" gradientUnits="userSpaceOnUse">
      <stop stop-color="#FFEA83"/>
      <stop offset="0.0833333" stop-color="#FFDD35"/>
      <stop offset="1" stop-color="#FFA800"/>
    </linearGradient>
  </defs>
</svg>
